<svg xmlns="http://www.w3.org/2000/svg" viewBox="0 0 32 32" aria-hidden="true">
  <circle cx="16" cy="16" r="14" fill="#f7931a"/>
  <path fill="#fff" d="M20.6 11.2c.2-1.5-.9-2.3-2.5-2.8l.5-2-1.2-.3-.5 2c-.3-.1-.6-.2-1-.3l.5-2-1.2-.3-.5 2-2.4-.6-.3 1.4s.9.2.9.2c.5.1.6.4.5.7l-.6 2.5v.2l-.9 3.8c-.1.2-.3.3-.6.2 0 0-.9-.2-.9-.2l-.6 1.5 2.3.6-.5 2 1.2.3.5-2c.3.1.7.2 1 .3l-.5 2 1.2.3.5-2c2 .4 3.5.2 4.1-1.6.5-1.5 0-2.4-1.1-2.9.8-.2 1.4-.8 1.5-2zm-2.7 3.8c.4 1.5-1 2.2-2.6 2.5l-.7 2.6-1.3-.4.6-2.6c-.4-.1-.8-.2-1.1-.3l-.6 2.6-1.3-.4.7-2.7-2.1-.6 1.3-.5c.5-.2.8-.5.9-.9l1.1-4.4c.1-.3 0-.6-.2-.8l-2.1-.6.4-1.1 2.9.7c.3-.1.6-.2.9-.3l.6-2.2 1.3.4-.6 2.2c.4.1.7.2 1.1.3l.5-2.2 1.3.4-.6 2.3c1.8.5 3.3 1.3 2.7 3.1z"/>
</svg>