<svg xmlns="http://www.w3.org/2000/svg" viewBox="0 0 32 32" aria-hidden="true">
  <circle cx="16" cy="16" r="14" fill="none" stroke="currentColor" stroke-width="2"/>
  <path fill="currentColor" d="M18.2 8.5c1.8.2 3.1 1.1 3.1 2.8 0 1.4-.8 2.2-2.2 2.6 1.4.3 2.3 1.2 2.3 2.8 0 2.1-1.7 3.4-4.4 3.6l-.1 2.1h-1.6l-.1-2.1c-.4 0-.9 0-1.4-.1l-.1 2.1h-1.6l.1-2.1c-.3 0-.6-.1-.9-.1l-2.2-.4.3-1.9 1.2.2v-4.3l-1.2-.2-.3-1.9 2.2.4c.3 0 .6.1.9.1l.1-2.1h1.6l-.1 2c.5 0 .9.1 1.3.1zm-1.1 6.8c1.6-.1 2.6-.7 2.6-1.8 0-1-.8-1.5-2.2-1.6l-.4 3.4zm-1.5-5.2c1.4-.1 2.3-.6 2.3-1.6 0-.9-.7-1.4-2-1.5l-.3 3.1z"/>
</svg>
