<svg xmlns="http://www.w3.org/2000/svg" viewBox="0 0 32 32" aria-hidden="true">
  <rect x="3" y="3" width="26" height="26" rx="6" fill="#f0b90b"/>
  <path fill="#fff" d="M16 7.5l3.5 3.5L16 14.5 12.5 11 16 7.5zM22 12.5l3.5 3.5L22 19.5 18.5 16 22 12.5zM10 12.5l3.5 3.5L10 19.5 6.5 16 10 12.5zM16 18.5l3.5 3.5L16 25.5 12.5 22 16 18.5z"/>
  <path fill="#fff" opacity="0.6" d="M16 18.5l3.5-2.5 3.5 2.5-3.5 3-3.5-3z"/>
  <path fill="#fff" opacity="0.3" d="M12.5 16l3.5 2.5-3.5 3-3.5-3 3.5-2.5z"/>
  <path fill="#fff" opacity="0.15" d="M16 14.5l3.5-2 3.5 2.5-3.5 3L16 14.5z"/>
</svg>