<svg xmlns="http://www.w3.org/2000/svg" viewBox="0 0 512 512">
  <circle cx="256" cy="256" r="256" fill="#c2a633"/>
  <path fill="#fff" d="M310.2 351.9c-16.2 6.7-34.2 10.1-54.1 10.1H180.6V297h76.8c15.1 0 28.3 2.2 39.7 6.7 11.4 4.4 21.1 10.8 29.1 19s13.8 18.2 18 29.9c4.2 11.6 6.3 24.2 6.3 37.8v-38.5h-40.3v-65.7h38.9c20.4 0 38.2 3.7 53.5 11.2 15.2 7.4 28.2 18 38.7 31.5 10.5 13.6 18.5 30 24.1 49.2 5.6 19.3 8.4 40.6 8.4 64v-50.3c0-33.2-6-63.4-18.1-90.5-12.1-27.1-28.8-50.2-50.2-69.4-21.4-19.2-47-34-76.6-44.4-29.6-10.4-62-15.6-97.3-15.6H100.3V430h90.1c33.4 0 63.3-5.5 89.7-16.6 26.4-11.1 48.7-26.7 67-46.8l-36.9-14.7z"/>
</svg>
