<svg xmlns="http://www.w3.org/2000/svg" viewBox="0 0 512 512"><circle cx="256" cy="256" r="256" fill="#c2a633"/><path fill="#fff" d="M263 72c-48 0-91 4-123 15-32 10-60 25-83 45s-41 43-54 71c-13 28-19 60-19 96s6 68 19 96c13 28 30 52 54 71s51 35 83 45c32 10 75 15 123 15h92V313h-66v-57h66V72H263zm21 188h-47v99h53c18 0 33-3 45-9s23-14 32-25c9-11 16-24 21-40s7-33 7-54v-71h-68v100h-43z"/><path fill="#c2a633" d="M284 260h-47v99h53c18 0 33-3 45-9s23-14 32-25c9-11 16-24 21-40s7-33 7-54v-71h-68v100h-43z"/></svg>