<svg xmlns="http://www.w3.org/2000/svg" viewBox="0 0 512 512">
  <circle cx="256" cy="256" r="256" fill="#c2a633"/>
  <path fill="#fff" d="M165 135h140c27 0 49 10 65 30 17 20 25 46 25 79 0 37-9 65-28 86s-44 33-76 39c-10 2-21 3-34 3H165V135zm93 168h-37V189h46c12 0 22 1 30 4 14 4 25 13 33 26s12 30 12 54c0 24-4 43-13 56s-20 21-33 25c-7 3-17 4-31 4h-17l-20-1v-89z"/>
  <path fill="#c2a633" d="M221 303h37l20 1h16c14 0 24-2 31-5 13-5 24-14 33-26s13-32 13-58c0-22-4-39-12-52s-19-22-33-27c-8-3-18-4-30-4h-46v189h-37V135h-28v210h28v-42z"/>
</svg>
