<svg xmlns="http://www.w3.org/2000/svg" viewBox="0 0 32 32" aria-hidden="true">
  <g fill="currentColor">
    <circle cx="6" cy="16" r="4.5" opacity="0.25"/>
    <circle cx="16" cy="16" r="4.5" opacity="0.5"/>
    <circle cx="26" cy="16" r="4.5" opacity="0.85"/>
    <path d="M6 20c2.2 0 4-1.8 4-4S8.2 12 6 12s-4 1.8-4 4 1.8 4 4 4zm10 0c2.2 0 4-1.8 4-4s-1.8-4-4-4-4 1.8-4 4 1.8 4 4 4zm10 0c2.2 0 4-1.8 4-4s-1.8-4-4-4-4 1.8-4 4 1.8 4 4 4z" opacity="0.08"/>
    <path d="M10 12.5l6-4.5 6 4.5" fill="none" stroke="currentColor" stroke-width="1.5" opacity="0.35"/>
    <path d="M10 19.5l6 4.5 6-4.5" fill="none" stroke="currentColor" stroke-width="1.5" opacity="0.35"/>
  </g>
</svg>