<svg xmlns="http://www.w3.org/2000/svg" viewBox="0 0 32 32" aria-hidden="true">
  <circle cx="16" cy="16" r="14" fill="none" stroke="currentColor" stroke-width="2"/>
  <path fill="currentColor" d="M11 21c0-3.5 2.2-6.5 5-7.5-1.2 1.5-1.8 3.2-1.5 5.2.3 2.2 1.5 4 3.2 5.1-2.3-.4-4.2-1.5-5.5-3.2 1.2-.8 2-2 2.3-3.4-.5.5-.8 1.2-.8 2.1 0 1.5 1.2 2.7 2.7 2.7.8 0 1.5-.3 2-.9-.3-1.8.2-3.5 1.3-4.8-2.5 1.2-4.2 3.8-4.2 6.8h2.5z"/>
  <path fill="currentColor" d="M19.5 10.5c1.8.5 3.2 2 3.5 3.9.4 2.5-1 4.8-3.3 5.5-.5.1-1 .2-1.5.2-1.2 0-2.3-.4-3.2-1.1 1.5-.3 2.8-1.2 3.5-2.5.8-1.5.6-3.3-.5-4.6 1-.3 2-.2 2.8.3-.5-.5-1.2-.8-2-.8-.3 0-.6 0-.8.1z"/>
</svg>
