<svg xmlns="http://www.w3.org/2000/svg" viewBox="0 0 32 32" aria-hidden="true">
  <circle cx="16" cy="16" r="14" fill="#ff007a" opacity="0.12"/>
  <g fill="currentColor">
    <path d="M16 6c-2 3-5 6-7 10s-2 7 1 9c2 1.5 4.5 1.5 6.5.5 1.5-.7 2.5-2 3-3.5.3 1 .8 2 1.5 2.8 1.5 1.7 4 2 5.5.5 1.5-1.5 1.5-4 .5-5.8C25.5 15.5 22 12 16 6z" opacity="0.3"/>
    <path d="M16 8c-1.8 2.5-4.5 5-6 8.5C8.5 19.5 9 22 10.5 23.5c1.2 1 3 1 4.5.3 1.2-.5 2-1.5 2.5-2.8.3 1 .7 2 1.5 2.8 1.2 1.2 3.2 1.5 4.5.3 1.2-1.2 1.5-3.2.5-4.8-.7-1.3-2-2.8-3.5-4.3S17.5 9.8 16 8z" opacity="0.5"/>
    <path d="M16 9.5C14.5 11.8 12 14 10.5 17S10 21 11.5 22.5c.8.7 2 .8 3 .3.8-.4 1.3-1 1.5-1.8.2 1 .5 2 1.3 2.8.8.8 2.2 1 3 .3.8-.8 1-2.2.3-3.3-.5-.8-1.3-1.8-2.3-2.8S17 11.5 16 9.5z"/>
  </g>
</svg>