<svg xmlns="http://www.w3.org/2000/svg" viewBox="0 0 64 64">
  <defs>
    <linearGradient id="g" x1="20" y1="2" x2="46" y2="62" gradientUnits="userSpaceOnUse">
      <stop offset="0" stop-color="#a78bfa"/>
      <stop offset="0.48" stop-color="#746ed3"/>
      <stop offset="1" stop-color="#111827"/>
    </linearGradient>
    <linearGradient id="f" x1="9" y1="38" x2="55" y2="58" gradientUnits="userSpaceOnUse">
      <stop offset="0" stop-color="#f8fafc"/>
      <stop offset="0.55" stop-color="#aeb6c2"/>
      <stop offset="1" stop-color="#111827"/>
    </linearGradient>
  </defs>
  <rect width="64" height="64" rx="14" fill="#ffffff"/>
  <path d="M32 6 7 31v11l25 18 25-18V31L32 6Z" fill="none" stroke="url(#g)" stroke-width="4" stroke-linecap="round" stroke-linejoin="round"/>
  <path d="M32 6v19M32 25 20 37M32 25l12 12M20 37v8l12 10M44 37v8L32 55M7 42l25 18 25-18" fill="none" stroke="url(#g)" stroke-width="5" stroke-linecap="round" stroke-linejoin="round"/>
  <path d="m32 45-24-8 24 19 24-19-24 8Z" fill="url(#f)" opacity="0.8"/>
  <g fill="url(#g)">
    <circle cx="32" cy="6" r="5"/>
    <circle cx="7" cy="31" r="5"/>
    <circle cx="57" cy="31" r="5"/>
    <circle cx="20" cy="37" r="5.5"/>
    <circle cx="44" cy="37" r="5.5"/>
    <circle cx="7" cy="42" r="5"/>
    <circle cx="57" cy="42" r="5"/>
    <circle cx="32" cy="59" r="5"/>
  </g>
</svg>
