<svg xmlns="http://www.w3.org/2000/svg" viewBox="0 0 720 220" role="img" aria-labelledby="title desc">
  <title id="title">Proof of Contribution</title>
  <desc id="desc">Proof of Contribution logo with mark and wordmark.</desc>
  <defs>
    <linearGradient id="lineGradient" x1="44" y1="28" x2="104" y2="188" gradientUnits="userSpaceOnUse">
      <stop offset="0" stop-color="#9385ff"/>
      <stop offset="0.48" stop-color="#706cc0"/>
      <stop offset="1" stop-color="#111827"/>
    </linearGradient>
    <linearGradient id="nodeGradient" x1="32" y1="26" x2="118" y2="190" gradientUnits="userSpaceOnUse">
      <stop offset="0" stop-color="#a78bfa"/>
      <stop offset="0.42" stop-color="#746ed3"/>
      <stop offset="1" stop-color="#111827"/>
    </linearGradient>
    <linearGradient id="leftFacet" x1="18" y1="126" x2="78" y2="178" gradientUnits="userSpaceOnUse">
      <stop offset="0" stop-color="#f8fafc"/>
      <stop offset="0.5" stop-color="#b8bec8"/>
      <stop offset="1" stop-color="#4b5563"/>
    </linearGradient>
    <linearGradient id="rightFacet" x1="140" y1="126" x2="78" y2="178" gradientUnits="userSpaceOnUse">
      <stop offset="0" stop-color="#f8fafc"/>
      <stop offset="0.5" stop-color="#c4cad4"/>
      <stop offset="1" stop-color="#4b5563"/>
    </linearGradient>
  </defs>
  <g transform="translate(30 18)">
    <g fill="none" stroke-linecap="round" stroke-linejoin="round">
      <path d="M80 16 16 82v30l64 64 64-64V82L80 16Z" stroke="url(#lineGradient)" stroke-width="6"/>
      <path d="M80 16v48M80 64 48 96M80 64l32 32M48 96v24l32 32M112 96v24l-32 32M80 152v30" stroke="url(#lineGradient)" stroke-width="10"/>
      <path d="M16 112 80 176l64-64" stroke="#111827" stroke-width="5"/>
      <path d="M35 108 16 128M125 108l19 20" stroke="#4b5563" stroke-width="5"/>
    </g>
    <path d="m80 176-62-48 62 22 62-22-62 48Z" fill="#111827" opacity="0.14"/>
    <path d="m80 150-62-22 62 48v-26Z" fill="url(#leftFacet)" opacity="0.88"/>
    <path d="m80 150 62-22-62 48v-26Z" fill="url(#rightFacet)" opacity="0.82"/>
    <path d="m80 150-35-13 35 26 35-26-35 13Z" fill="#e5e7eb" opacity="0.7"/>
    <g fill="url(#nodeGradient)">
      <circle cx="80" cy="16" r="12"/>
      <circle cx="16" cy="82" r="12"/>
      <circle cx="144" cy="82" r="12"/>
      <circle cx="48" cy="96" r="13"/>
      <circle cx="112" cy="96" r="13"/>
      <circle cx="16" cy="112" r="12"/>
      <circle cx="144" cy="112" r="12"/>
      <circle cx="80" cy="184" r="12"/>
    </g>
  </g>
  <g fill="#111827" font-family="Inter, ui-sans-serif, system-ui, -apple-system, BlinkMacSystemFont, 'Segoe UI', sans-serif" font-weight="740">
    <text x="220" y="96" font-size="62">Proof of</text>
    <text x="220" y="166" font-size="62">Contribution</text>
  </g>
</svg>
